<svg width="24" height="24" viewBox="0 0 24 24" fill="none" xmlns="http://www.w3.org/2000/svg">
<path d="M12.0249 21C11.7415 21 11.5039 20.904 11.3119 20.712C11.1205 20.5207 11.0249 20.2833 11.0249 20V18.85C10.2749 18.6833 9.61653 18.3917 9.04986 17.975C8.48319 17.5583 8.02486 16.975 7.67486 16.225C7.55819 15.9917 7.55386 15.746 7.66186 15.488C7.77053 15.2293 7.96653 15.0417 8.24986 14.925C8.48319 14.825 8.72486 14.8293 8.97486 14.938C9.22486 15.046 9.41653 15.225 9.54986 15.475C9.83319 15.975 10.1915 16.3543 10.6249 16.613C11.0582 16.871 11.5915 17 12.2249 17C12.9082 17 13.4875 16.846 13.9629 16.538C14.4375 16.2293 14.6749 15.75 14.6749 15.1C14.6749 14.5167 14.4915 14.054 14.1249 13.712C13.7582 13.3707 12.9082 12.9833 11.5749 12.55C10.1415 12.1 9.15819 11.5627 8.62486 10.938C8.09153 10.3127 7.82486 9.55 7.82486 8.65C7.82486 7.56667 8.17486 6.725 8.87486 6.125C9.57486 5.525 10.2915 5.18333 11.0249 5.1V4C11.0249 3.71667 11.1205 3.479 11.3119 3.287C11.5039 3.09567 11.7415 3 12.0249 3C12.3082 3 12.5459 3.09567 12.7379 3.287C12.9292 3.479 13.0249 3.71667 13.0249 4V5.1C13.6582 5.2 14.2082 5.40433 14.6749 5.713C15.1415 6.021 15.5249 6.4 15.8249 6.85C15.9749 7.06667 16.0042 7.30833 15.9129 7.575C15.8209 7.84167 15.6332 8.03333 15.3499 8.15C15.1165 8.25 14.8749 8.254 14.6249 8.162C14.3749 8.07067 14.1415 7.90833 13.9249 7.675C13.7082 7.44167 13.4542 7.26233 13.1629 7.137C12.8709 7.01233 12.5082 6.95 12.0749 6.95C11.3415 6.95 10.7832 7.11267 10.3999 7.438C10.0165 7.76267 9.82486 8.16667 9.82486 8.65C9.82486 9.2 10.0749 9.63333 10.5749 9.95C11.0749 10.2667 11.9415 10.6 13.1749 10.95C14.3249 11.2833 15.1959 11.8123 15.7879 12.537C16.3792 13.2623 16.6749 14.1 16.6749 15.05C16.6749 16.2333 16.3249 17.1333 15.6249 17.75C14.9249 18.3667 14.0582 18.75 13.0249 18.9V20C13.0249 20.2833 12.9292 20.5207 12.7379 20.712C12.5459 20.904 12.3082 21 12.0249 21Z" fill="#2E2E2E"/>
</svg>
