<svg width="56" height="56" viewBox="0 0 56 56" fill="none" xmlns="http://www.w3.org/2000/svg">
<path d="M15.1663 46.6667C11.6275 46.6667 8.60423 45.4417 6.09667 42.9917C3.58756 40.5417 2.33301 37.5473 2.33301 34.0084C2.33301 30.975 3.2469 28.2723 5.07467 25.9C6.90245 23.5278 9.29412 22.0112 12.2497 21.35C13.2219 17.7723 15.1663 14.875 18.083 12.6584C20.9997 10.4417 24.3052 9.33337 27.9997 9.33337C32.5497 9.33337 36.409 10.9177 39.5777 14.0864C42.7479 17.2566 44.333 21.1167 44.333 25.6667C47.0163 25.9778 49.2431 27.1344 51.0133 29.1364C52.782 31.1399 53.6663 33.4834 53.6663 36.1667C53.6663 39.0834 52.6459 41.5629 50.605 43.6054C48.5626 45.6463 46.083 46.6667 43.1663 46.6667H30.333C29.0497 46.6667 27.9515 46.2102 27.0383 45.297C26.1237 44.3824 25.6663 43.2834 25.6663 42V29.9834L21.933 33.6L18.6663 30.3334L27.9997 21L37.333 30.3334L34.0663 33.6L30.333 29.9834V42H43.1663C44.7997 42 46.1802 41.4362 47.308 40.3084C48.4358 39.1806 48.9997 37.8 48.9997 36.1667C48.9997 34.5334 48.4358 33.1528 47.308 32.025C46.1802 30.8973 44.7997 30.3334 43.1663 30.3334H39.6663V25.6667C39.6663 22.4389 38.5292 19.6872 36.255 17.4114C33.9792 15.1372 31.2275 14 27.9997 14C24.7719 14 22.0209 15.1372 19.7467 17.4114C17.4709 19.6872 16.333 22.4389 16.333 25.6667H15.1663C12.9108 25.6667 10.9858 26.4639 9.39134 28.0584C7.7969 29.6528 6.99967 31.5778 6.99967 33.8334C6.99967 36.0889 7.7969 38.0139 9.39134 39.6084C10.9858 41.2028 12.9108 42 15.1663 42H20.9997V46.6667H15.1663Z" fill="#D5D7DA"/>
</svg>
