<svg width="24" height="24" viewBox="0 0 24 24" fill="none" xmlns="http://www.w3.org/2000/svg">
<g clip-path="url(#clip0_373_6310)">
<path d="M10.2698 12H13.7298C14.6598 12 15.3598 11.17 15.2098 10.25L14.9098 8.46C14.6698 7.04 13.4398 6 11.9998 6C10.5598 6 9.32983 7.04 9.08983 8.47L8.78983 10.26C8.63983 11.17 9.33983 12 10.2698 12Z" fill="#2E2E2E"/>
<path d="M1.65953 11.11C1.52953 11.37 1.47953 11.68 1.55953 11.99C1.71953 12.68 2.31953 13.02 3.08953 12.99C3.08953 12.99 4.57953 12.99 5.03953 12.99C5.86953 12.99 6.54954 12.41 6.54954 11.7C6.54954 11.56 6.51954 11.43 6.47954 11.3C6.46954 11.27 6.46953 11.25 6.48953 11.22C6.57953 11.06 6.62954 10.88 6.62954 10.69C6.62954 10.38 6.48954 10.09 6.26954 9.87C6.23954 9.84 6.23954 9.81 6.24954 9.77C6.31954 9.57 6.31954 9.34 6.25954 9.12C6.09954 8.69 5.70953 8.4 5.26953 8.38C5.23953 8.38 5.21953 8.37 5.19953 8.35C5.02953 8.14 4.71953 8 4.36953 8C4.06953 8 3.79953 8.1 3.61953 8.26C3.58953 8.29 3.55953 8.29 3.52953 8.28C3.38953 8.22 3.22953 8.19 3.06953 8.19C2.41953 8.19 1.88953 8.68 1.82953 9.31C1.82953 9.33 1.81953 9.35 1.79953 9.37C1.50953 9.63 1.33953 10.02 1.38953 10.42C1.41953 10.64 1.50953 10.85 1.63953 11.02C1.66953 11.04 1.66953 11.08 1.65953 11.11Z" fill="#2E2E2E"/>
<path d="M16.24 13.65C15.07 13.13 13.63 12.75 12 12.75C10.37 12.75 8.93 13.14 7.76 13.65C6.68 14.13 6 15.21 6 16.39V18H18V16.39C18 15.21 17.32 14.13 16.24 13.65Z" fill="#2E2E2E"/>
<path d="M1.22 14.58C0.48 14.9 0 15.62 0 16.43V18H4.5V16.39C4.5 15.56 4.73 14.78 5.13 14.1C4.76 14.04 4.39 14 4 14C3.01 14 2.07 14.21 1.22 14.58Z" fill="#2E2E2E"/>
<path d="M22.7801 14.58C21.9301 14.21 20.9901 14 20.0001 14C19.6101 14 19.2401 14.04 18.8701 14.1C19.2701 14.78 19.5001 15.56 19.5001 16.39V18H24.0001V16.43C24.0001 15.62 23.5201 14.9 22.7801 14.58Z" fill="#2E2E2E"/>
<path d="M21.9999 11V10.5C21.9999 9.4 21.0999 8.5 19.9999 8.5H17.9999C17.5799 8.5 17.3499 8.98 17.6099 9.31L18.3099 9.94C18.1199 10.25 17.9999 10.61 17.9999 11C17.9999 12.1 18.8999 13 19.9999 13C21.0999 13 21.9999 12.1 21.9999 11Z" fill="#2E2E2E"/>
</g>
<defs>
<clipPath id="clip0_373_6310">
<rect width="24" height="24" fill="white"/>
</clipPath>
</defs>
</svg>
