<svg width="24" height="24" viewBox="0 0 24 24" fill="none" xmlns="http://www.w3.org/2000/svg">
<path d="M19.9912 2.00195C19.726 2.00195 19.4716 2.10731 19.2841 2.29485C19.0966 2.48238 18.9912 2.73674 18.9912 3.00195V3.63895C18.1476 4.6844 17.0816 5.52869 15.8707 6.11043C14.6599 6.69216 13.3346 6.99672 11.9912 7.00195H5.99121C5.19581 7.00275 4.4332 7.31907 3.87077 7.88151C3.30833 8.44395 2.99201 9.20655 2.99121 10.002V12.002C2.99201 12.7974 3.30833 13.56 3.87077 14.1224C4.4332 14.6848 5.19581 15.0012 5.99121 15.002H6.47521L4.07221 20.608C4.00698 20.7601 3.98055 20.9261 3.9953 21.091C4.01004 21.2559 4.0655 21.4146 4.1567 21.5528C4.2479 21.691 4.37198 21.8043 4.51781 21.8827C4.66363 21.9611 4.82665 22.0021 4.99221 22.002H8.99221C9.18771 22.0017 9.37886 21.9442 9.54202 21.8365C9.70518 21.7288 9.83318 21.5756 9.91021 21.396L12.6342 15.04C13.8648 15.1305 15.0637 15.4722 16.1571 16.0441C17.2504 16.6159 18.215 17.4058 18.9912 18.365V19.002C18.9912 19.2672 19.0966 19.5215 19.2841 19.7091C19.4716 19.8966 19.726 20.002 19.9912 20.002C20.2564 20.002 20.5108 19.8966 20.6983 19.7091C20.8859 19.5215 20.9912 19.2672 20.9912 19.002V3.00195C20.9912 2.73674 20.8859 2.48238 20.6983 2.29485C20.5108 2.10731 20.2564 2.00195 19.9912 2.00195ZM5.99121 13.002C5.72599 13.002 5.47164 12.8966 5.2841 12.7091C5.09657 12.5215 4.99121 12.2672 4.99121 12.002V10.002C4.99121 9.73674 5.09657 9.48238 5.2841 9.29485C5.47164 9.10731 5.72599 9.00195 5.99121 9.00195H6.99121V13.002H5.99121ZM8.33221 20.002H6.50821L8.65021 15.002H10.4752L8.33221 20.002ZM18.9922 15.524C17.0206 13.8994 14.5469 13.0082 11.9922 13.002H8.99221V9.00195H11.9922C14.5469 8.99575 17.0206 8.10453 18.9922 6.47995V15.524Z" fill="#2E2E2E"/>
</svg>
