<svg width="24" height="24" viewBox="0 0 24 24" fill="none" xmlns="http://www.w3.org/2000/svg">
<g clip-path="url(#clip0_370_19523)">
<path d="M21.8995 8.89L20.8495 4.52C20.6295 3.62 19.8495 3 18.9395 3H5.04952C4.14952 3 3.35952 3.63 3.14952 4.52L2.09952 8.89C1.85952 9.91 2.07952 10.95 2.71952 11.77C2.79952 11.88 2.90952 11.96 2.99952 12.06V19C2.99952 20.1 3.89952 21 4.99952 21H18.9995C20.0995 21 20.9995 20.1 20.9995 19V12.06C21.0895 11.97 21.1995 11.88 21.2795 11.78C21.9195 10.96 22.1495 9.91 21.8995 8.89ZM18.9095 4.99L19.9595 9.36C20.0595 9.78 19.9695 10.2 19.7095 10.53C19.5695 10.71 19.2695 11 18.7695 11C18.1595 11 17.6295 10.51 17.5595 9.86L16.9795 5L18.9095 4.99ZM12.9995 5H14.9595L15.4995 9.52C15.5495 9.91 15.4295 10.3 15.1695 10.59C14.9495 10.85 14.6295 11 14.2195 11C13.5495 11 12.9995 10.41 12.9995 9.69V5ZM8.48952 9.52L9.03952 5H10.9995V9.69C10.9995 10.41 10.4495 11 9.70952 11C9.36952 11 9.05952 10.85 8.81952 10.59C8.56952 10.3 8.44952 9.91 8.48952 9.52ZM4.03952 9.36L5.04952 5H7.01952L6.43952 9.86C6.35952 10.51 5.83952 11 5.22952 11C4.73952 11 4.42952 10.71 4.29952 10.53C4.02952 10.21 3.93952 9.78 4.03952 9.36ZM4.99952 19V12.97C5.07952 12.98 5.14952 13 5.22952 13C6.09952 13 6.88952 12.64 7.46952 12.05C8.06952 12.65 8.86952 13 9.77952 13C10.6495 13 11.4295 12.64 12.0095 12.07C12.5995 12.64 13.3995 13 14.2995 13C15.1395 13 15.9395 12.65 16.5395 12.05C17.1195 12.64 17.9095 13 18.7795 13C18.8595 13 18.9295 12.98 19.0095 12.97V19H4.99952Z" fill="white"/>
</g>
<defs>
<clipPath id="clip0_370_19523">
<rect width="24" height="24" fill="white"/>
</clipPath>
</defs>
</svg>
