<svg width="24" height="24" viewBox="0 0 24 24" fill="none" xmlns="http://www.w3.org/2000/svg">
<path d="M19.9912 2.00201C19.726 2.00201 19.4716 2.10737 19.2841 2.29491C19.0966 2.48244 18.9912 2.7368 18.9912 3.00201V3.63901C18.1476 4.68446 17.0816 5.52875 15.8707 6.11049C14.6599 6.69222 13.3346 6.99678 11.9912 7.00201H5.99121C5.19581 7.00281 4.4332 7.31913 3.87077 7.88157C3.30833 8.44401 2.99201 9.20661 2.99121 10.002V12.002C2.99201 12.7974 3.30833 13.56 3.87077 14.1225C4.4332 14.6849 5.19581 15.0012 5.99121 15.002H6.47521L4.07221 20.608C4.00698 20.7602 3.98055 20.9262 3.9953 21.0911C4.01004 21.256 4.0655 21.4147 4.1567 21.5528C4.2479 21.691 4.37198 21.8044 4.51781 21.8828C4.66363 21.9612 4.82665 22.0022 4.99221 22.002H8.99221C9.18771 22.0018 9.37886 21.9443 9.54202 21.8366C9.70517 21.7289 9.83318 21.5757 9.91021 21.396L12.6342 15.04C13.8648 15.1305 15.0637 15.4722 16.1571 16.0441C17.2504 16.616 18.215 17.4059 18.9912 18.365V19.002C18.9912 19.2672 19.0966 19.5216 19.2841 19.7091C19.4716 19.8967 19.726 20.002 19.9912 20.002C20.2564 20.002 20.5108 19.8967 20.6983 19.7091C20.8859 19.5216 20.9912 19.2672 20.9912 19.002V3.00201C20.9912 2.7368 20.8859 2.48244 20.6983 2.29491C20.5108 2.10737 20.2564 2.00201 19.9912 2.00201ZM5.99121 13.002C5.72599 13.002 5.47164 12.8967 5.2841 12.7091C5.09657 12.5216 4.99121 12.2672 4.99121 12.002V10.002C4.99121 9.7368 5.09657 9.48244 5.2841 9.29491C5.47164 9.10737 5.72599 9.00201 5.99121 9.00201H6.99121V13.002H5.99121ZM8.33221 20.002H6.50821L8.65021 15.002H10.4752L8.33221 20.002ZM18.9922 15.524C17.0206 13.8994 14.5469 13.0082 11.9922 13.002H8.99221V9.00201H11.9922C14.5469 8.99581 17.0206 8.10459 18.9922 6.48001V15.524Z" fill="#2E2E2E"/>
</svg>
