<svg width="96" height="96" viewBox="0 0 96 96" fill="none" xmlns="http://www.w3.org/2000/svg">
<rect width="96" height="96" rx="48" fill="#8C52FF"/>
<path d="M30 68V56.8889C30 55.6667 30.4352 54.6204 31.3056 53.75C32.1759 52.8796 33.2222 52.4444 34.4444 52.4444H61.1111C62.3333 52.4444 63.3796 52.8796 64.25 53.75C65.1204 54.6204 65.5556 55.6667 65.5556 56.8889V68H30ZM41.1111 50.2222C38.037 50.2222 35.4167 49.1389 33.25 46.9722C31.0833 44.8056 30 42.1852 30 39.1111C30 36.037 31.0833 33.4167 33.25 31.25C35.4167 29.0833 38.037 28 41.1111 28H54.4444C57.5185 28 60.1389 29.0833 62.3056 31.25C64.4722 33.4167 65.5556 36.037 65.5556 39.1111C65.5556 42.1852 64.4722 44.8056 62.3056 46.9722C60.1389 49.1389 57.5185 50.2222 54.4444 50.2222H41.1111ZM34.4444 63.5556H61.1111V56.8889H34.4444V63.5556ZM41.1111 45.7778H54.4444C56.2963 45.7778 57.8704 45.1296 59.1667 43.8333C60.463 42.537 61.1111 40.963 61.1111 39.1111C61.1111 37.2593 60.463 35.6852 59.1667 34.3889C57.8704 33.0926 56.2963 32.4444 54.4444 32.4444H41.1111C39.2593 32.4444 37.6852 33.0926 36.3889 34.3889C35.0926 35.6852 34.4444 37.2593 34.4444 39.1111C34.4444 40.963 35.0926 42.537 36.3889 43.8333C37.6852 45.1296 39.2593 45.7778 41.1111 45.7778ZM41.1111 41.3333C41.7407 41.3333 42.2685 41.1204 42.6944 40.6944C43.1204 40.2685 43.3333 39.7407 43.3333 39.1111C43.3333 38.4815 43.1204 37.9537 42.6944 37.5278C42.2685 37.1019 41.7407 36.8889 41.1111 36.8889C40.4815 36.8889 39.9537 37.1019 39.5278 37.5278C39.1019 37.9537 38.8889 38.4815 38.8889 39.1111C38.8889 39.7407 39.1019 40.2685 39.5278 40.6944C39.9537 41.1204 40.4815 41.3333 41.1111 41.3333ZM54.4444 41.3333C55.0741 41.3333 55.6019 41.1204 56.0278 40.6944C56.4537 40.2685 56.6667 39.7407 56.6667 39.1111C56.6667 38.4815 56.4537 37.9537 56.0278 37.5278C55.6019 37.1019 55.0741 36.8889 54.4444 36.8889C53.8148 36.8889 53.287 37.1019 52.8611 37.5278C52.4352 37.9537 52.2222 38.4815 52.2222 39.1111C52.2222 39.7407 52.4352 40.2685 52.8611 40.6944C53.287 41.1204 53.8148 41.3333 54.4444 41.3333Z" fill="white"/>
<g clip-path="url(#clip0_763_9017)">
<rect x="50" y="53" width="24" height="24" rx="12" fill="black"/>
<path d="M67.7275 65.784C67.7595 65.528 67.7835 65.272 67.7835 65C67.7835 64.728 67.7595 64.472 67.7275 64.216L69.4155 62.896C69.5675 62.776 69.6075 62.56 69.5115 62.384L67.9115 59.616C67.8395 59.488 67.7035 59.416 67.5595 59.416C67.5115 59.416 67.4635 59.424 67.4235 59.44L65.4315 60.24C65.0155 59.92 64.5675 59.656 64.0795 59.456L63.7755 57.336C63.7515 57.144 63.5835 57 63.3835 57H60.1835C59.9835 57 59.8155 57.144 59.7915 57.336L59.4875 59.456C58.9995 59.656 58.5515 59.928 58.1355 60.24L56.1435 59.44C56.0955 59.424 56.0475 59.416 55.9995 59.416C55.8635 59.416 55.7275 59.488 55.6555 59.616L54.0555 62.384C53.9515 62.56 53.9995 62.776 54.1515 62.896L55.8395 64.216C55.8075 64.472 55.7835 64.736 55.7835 65C55.7835 65.264 55.8075 65.528 55.8395 65.784L54.1515 67.104C53.9995 67.224 53.9595 67.44 54.0555 67.616L55.6555 70.384C55.7275 70.512 55.8635 70.584 56.0075 70.584C56.0555 70.584 56.1035 70.576 56.1435 70.56L58.1355 69.76C58.5515 70.08 58.9995 70.344 59.4875 70.544L59.7915 72.664C59.8155 72.856 59.9835 73 60.1835 73H63.3835C63.5835 73 63.7515 72.856 63.7755 72.664L64.0795 70.544C64.5675 70.344 65.0155 70.072 65.4315 69.76L67.4235 70.56C67.4715 70.576 67.5195 70.584 67.5675 70.584C67.7035 70.584 67.8395 70.512 67.9115 70.384L69.5115 67.616C69.6075 67.44 69.5675 67.224 69.4155 67.104L67.7275 65.784ZM66.1435 64.416C66.1755 64.664 66.1835 64.832 66.1835 65C66.1835 65.168 66.1675 65.344 66.1435 65.584L66.0315 66.488L66.7435 67.048L67.6075 67.72L67.0475 68.688L66.0315 68.28L65.1995 67.944L64.4795 68.488C64.1355 68.744 63.8075 68.936 63.4795 69.072L62.6315 69.416L62.5035 70.32L62.3435 71.4H61.2235L61.0715 70.32L60.9435 69.416L60.0955 69.072C59.7515 68.928 59.4315 68.744 59.1115 68.504L58.3835 67.944L57.5355 68.288L56.5195 68.696L55.9595 67.728L56.8235 67.056L57.5355 66.496L57.4235 65.592C57.3995 65.344 57.3835 65.16 57.3835 65C57.3835 64.84 57.3995 64.656 57.4235 64.416L57.5355 63.512L56.8235 62.952L55.9595 62.28L56.5195 61.312L57.5355 61.72L58.3675 62.056L59.0875 61.512C59.4315 61.256 59.7595 61.064 60.0875 60.928L60.9355 60.584L61.0635 59.68L61.2235 58.6H62.3355L62.4875 59.68L62.6155 60.584L63.4635 60.928C63.8075 61.072 64.1275 61.256 64.4475 61.496L65.1755 62.056L66.0235 61.712L67.0395 61.304L67.5995 62.272L66.7435 62.952L66.0315 63.512L66.1435 64.416ZM61.7835 61.8C60.0155 61.8 58.5835 63.232 58.5835 65C58.5835 66.768 60.0155 68.2 61.7835 68.2C63.5515 68.2 64.9835 66.768 64.9835 65C64.9835 63.232 63.5515 61.8 61.7835 61.8ZM61.7835 66.6C60.9035 66.6 60.1835 65.88 60.1835 65C60.1835 64.12 60.9035 63.4 61.7835 63.4C62.6635 63.4 63.3835 64.12 63.3835 65C63.3835 65.88 62.6635 66.6 61.7835 66.6Z" fill="white"/>
</g>
<defs>
<clipPath id="clip0_763_9017">
<rect x="50" y="53" width="24" height="24" rx="12" fill="white"/>
</clipPath>
</defs>
</svg>
