<svg width="96" height="96" viewBox="0 0 96 96" fill="none" xmlns="http://www.w3.org/2000/svg">
<rect width="96" height="96" rx="48" fill="#8C52FF"/>
<path d="M47.7708 62.6666C47.8931 62.6666 48.0153 62.6361 48.1375 62.575C48.2597 62.5138 48.3514 62.4527 48.4125 62.3916L63.4458 47.3583C63.8125 46.9916 64.0799 46.5791 64.2479 46.1208C64.416 45.6625 64.5 45.2041 64.5 44.7458C64.5 44.2569 64.416 43.7909 64.2479 43.3479C64.0799 42.9048 63.8125 42.5152 63.4458 42.1791L55.6542 34.3875C55.3181 34.0208 54.9285 33.7534 54.4854 33.5854C54.0424 33.4173 53.5764 33.3333 53.0875 33.3333C52.6292 33.3333 52.1708 33.4173 51.7125 33.5854C51.2542 33.7534 50.8417 34.0208 50.475 34.3875L49.9708 34.8916L53.3625 38.3291C53.8208 38.7569 54.1569 39.2458 54.3708 39.7958C54.5847 40.3458 54.6917 40.9263 54.6917 41.5375C54.6917 42.8208 54.2563 43.8979 53.3854 44.7687C52.5146 45.6395 51.4375 46.075 50.1542 46.075C49.5431 46.075 48.9549 45.968 48.3896 45.7541C47.8243 45.5402 47.3278 45.2194 46.9 44.7916L43.4625 41.4L35.4417 49.4208C35.35 49.5125 35.2813 49.6118 35.2354 49.7187C35.1896 49.8257 35.1667 49.9402 35.1667 50.0625C35.1667 50.3069 35.2583 50.5284 35.4417 50.727C35.625 50.9257 35.8389 51.025 36.0833 51.025C36.2056 51.025 36.3278 50.9944 36.45 50.9333C36.5722 50.8722 36.6639 50.8111 36.725 50.75L42.9583 44.5166L45.525 47.0833L39.3375 53.3166C39.2458 53.4083 39.1771 53.5076 39.1313 53.6145C39.0854 53.7215 39.0625 53.8361 39.0625 53.9583C39.0625 54.2027 39.1542 54.4166 39.3375 54.6C39.5208 54.7833 39.7347 54.875 39.9792 54.875C40.1014 54.875 40.2236 54.8444 40.3458 54.7833C40.4681 54.7222 40.5597 54.6611 40.6208 54.6L46.8542 48.4125L49.4208 50.9791L43.2333 57.2125C43.1417 57.2736 43.0729 57.3652 43.0271 57.4875C42.9813 57.6097 42.9583 57.7319 42.9583 57.8541C42.9583 58.0986 43.05 58.3125 43.2333 58.4958C43.4167 58.6791 43.6306 58.7708 43.875 58.7708C43.9972 58.7708 44.1118 58.7479 44.2188 58.702C44.3257 58.6562 44.425 58.5875 44.5167 58.4958L50.75 52.3083L53.3167 54.875L47.0833 61.1083C46.9917 61.2 46.9229 61.2993 46.8771 61.4062C46.8313 61.5132 46.8083 61.6277 46.8083 61.75C46.8083 61.9944 46.9076 62.2083 47.1063 62.3916C47.3049 62.575 47.5264 62.6666 47.7708 62.6666ZM47.725 66.3333C46.5944 66.3333 45.5938 65.959 44.7229 65.2104C43.8521 64.4618 43.3403 63.5222 43.1875 62.3916C42.1486 62.2388 41.2778 61.8111 40.575 61.1083C39.8722 60.4055 39.4444 59.5347 39.2917 58.4958C38.2528 58.343 37.3896 57.9076 36.7021 57.1895C36.0146 56.4715 35.5944 55.6083 35.4417 54.6C34.2806 54.4472 33.3333 53.943 32.6 53.0875C31.8667 52.2319 31.5 51.2236 31.5 50.0625C31.5 49.4513 31.6146 48.8632 31.8438 48.2979C32.0729 47.7326 32.4014 47.2361 32.8292 46.8083L43.4625 36.2208L49.4667 42.225C49.5278 42.3166 49.6194 42.3854 49.7417 42.4312C49.8639 42.477 49.9861 42.5 50.1083 42.5C50.3833 42.5 50.6125 42.4159 50.7958 42.2479C50.9792 42.0798 51.0708 41.8583 51.0708 41.5833C51.0708 41.4611 51.0479 41.3388 51.0021 41.2166C50.9563 41.0944 50.8875 41.0027 50.7958 40.9416L44.2417 34.3875C43.9056 34.0208 43.516 33.7534 43.0729 33.5854C42.6299 33.4173 42.1639 33.3333 41.675 33.3333C41.2167 33.3333 40.7583 33.4173 40.3 33.5854C39.8417 33.7534 39.4292 34.0208 39.0625 34.3875L32.6 40.8958C32.325 41.1708 32.0958 41.4916 31.9125 41.8583C31.7292 42.225 31.6069 42.5916 31.5458 42.9583C31.4847 43.325 31.4847 43.6993 31.5458 44.0812C31.6069 44.4632 31.7292 44.8222 31.9125 45.1583L29.2542 47.8166C28.7347 47.1138 28.3528 46.3423 28.1083 45.502C27.8639 44.6618 27.7722 43.8138 27.8333 42.9583C27.8944 42.1027 28.1083 41.2701 28.475 40.4604C28.8417 39.6507 29.3458 38.925 29.9875 38.2833L36.45 31.8208C37.1833 31.118 38.0007 30.5833 38.9021 30.2166C39.8035 29.85 40.7278 29.6666 41.675 29.6666C42.6222 29.6666 43.5465 29.85 44.4479 30.2166C45.3493 30.5833 46.1514 31.118 46.8542 31.8208L47.3583 32.325L47.8625 31.8208C48.5958 31.118 49.4132 30.5833 50.3146 30.2166C51.216 29.85 52.1403 29.6666 53.0875 29.6666C54.0347 29.6666 54.959 29.85 55.8604 30.2166C56.7618 30.5833 57.5639 31.118 58.2667 31.8208L66.0125 39.5666C66.7153 40.2694 67.25 41.0791 67.6167 41.9958C67.9833 42.9125 68.1667 43.8444 68.1667 44.7916C68.1667 45.7388 67.9833 46.6632 67.6167 47.5645C67.25 48.4659 66.7153 49.268 66.0125 49.9708L50.9792 64.9583C50.5514 65.3861 50.0549 65.7222 49.4896 65.9666C48.9243 66.2111 48.3361 66.3333 47.725 66.3333Z" fill="white"/>
<g clip-path="url(#clip0_768_9138)">
<rect x="50" y="53" width="24" height="24" rx="12" fill="black"/>
<path d="M57.3 61.3H67.7V69.1H58.0605L57.3 69.8605V61.3ZM57.3 60C56.585 60 56.0065 60.585 56.0065 61.3L56 73L58.6 70.4H67.7C68.415 70.4 69 69.815 69 69.1V61.3C69 60.585 68.415 60 67.7 60H57.3ZM58.6 66.5H66.4V67.8H58.6V66.5ZM58.6 64.55H66.4V65.85H58.6V64.55ZM58.6 62.6H66.4V63.9H58.6V62.6Z" fill="white"/>
</g>
<defs>
<clipPath id="clip0_768_9138">
<rect x="50" y="53" width="24" height="24" rx="12" fill="white"/>
</clipPath>
</defs>
</svg>
