<svg id="Social" xmlns="http://www.w3.org/2000/svg" width="305" height="699" viewBox="0 0 305 699">
  <defs>
    <style>
      .cls-1, .cls-7 {
        fill: #fff;
      }

      .cls-1, .cls-10, .cls-11, .cls-12, .cls-13, .cls-14, .cls-15, .cls-16, .cls-3, .cls-5, .cls-6, .cls-9 {
        fill-rule: evenodd;
      }

      .cls-2, .cls-5 {
        fill: #23cdfc;
      }

      .cls-3, .cls-4 {
        fill: #2650ef;
      }
 
    </style>
  </defs>
  <path id="Icon-Facebook" class="cls-1" d="M146,509h3v-7h2l1-3h-3v-2a4.306,4.306,0,0,1,.087-1.6,1.555,1.555,0,0,1,1.261-.422h1.637L152,492c-0.614,0-1.424-.022-2.4-0.009-1.828.023-1.871,0.271-2.6,1.009s-1,2.664-1,4v2h-2v3h2v7Z"/>
  <path id="Icon-Twitter" class="cls-1" d="M189.126,495.6a6.5,6.5,0,0,1-1.868.5,3.235,3.235,0,0,0,1.426-1.787,6.414,6.414,0,0,1-2.059.783,3.246,3.246,0,0,0-5.612,2.219,3.675,3.675,0,0,0,.08.743,9.222,9.222,0,0,1-6.687-3.394,3.25,3.25,0,0,0,1,4.338,3.273,3.273,0,0,1-1.466-.412v0.04a3.243,3.243,0,0,0,2.6,3.183,3.439,3.439,0,0,1-.853.11,4.111,4.111,0,0,1-.613-0.05,3.25,3.25,0,0,0,3.032,2.249,6.667,6.667,0,0,1-4.809,1.345,9.231,9.231,0,0,0,14.207-7.771c0-.14,0-0.281-0.01-0.421A6.984,6.984,0,0,0,189.126,495.6Z"/>
  <path id="Icon-Google" class="cls-1" d="M215.888,500.088a4.831,4.831,0,0,0-.094-0.953h-5.406V501.1h3.25a3.1,3.1,0,0,1-3.25,2.468,3.618,3.618,0,0,1,0-7.234,3.214,3.214,0,0,1,2.281.883l1.555-1.492a5.468,5.468,0,0,0-3.836-1.5,5.727,5.727,0,0,0,0,11.453A5.282,5.282,0,0,0,215.888,500.088Zm6.774-.953h-1.633V497.5h-1.641v1.633h-1.633v1.641h1.633v1.632h1.641v-1.632h1.633v-1.641Z"/>
  <path id="In" class="cls-1" d="M243,498h-3v9h3v-9Zm-0.012-2.5a1.5,1.5,0,1,0-1.52,1.511h0.016A1.441,1.441,0,0,0,242.988,495.5ZM254,502c0-2.695-1.462-3.992-3.406-3.992-1.595,0-2.209.389-2.594,0.992h0v-1h-3s0.022,1.036-.014,9h0L248,507v-5a1.726,1.726,0,0,1,.032-0.624,1.615,1.615,0,0,1,1.514-1.064c1.066,0,1.454.509,1.454,1.688v5l2.989,0Z"/>
  <path class="cls-1" d="M280,499l-9-5.364V493h18v0.636Zm0,3,9-6.143V507H271V495.857Z"/>
  
</svg>
