<svg width="56" height="56" viewBox="0 0 56 56" fill="none" xmlns="http://www.w3.org/2000/svg">
<path d="M15.1666 46.6666C11.6277 46.6666 8.60447 45.4416 6.09692 42.9916C3.58781 40.5416 2.33325 37.5472 2.33325 34.0083C2.33325 30.975 3.24714 28.2722 5.07492 25.9C6.9027 23.5278 9.29436 22.0111 12.2499 21.35C13.2221 17.7722 15.1666 14.875 18.0833 12.6583C20.9999 10.4416 24.3055 9.33331 27.9999 9.33331C32.5499 9.33331 36.4093 10.9176 39.5779 14.0863C42.7481 17.2565 44.3333 21.1166 44.3333 25.6666C47.0166 25.9778 49.2434 27.1343 51.0136 29.1363C52.7823 31.1399 53.6666 33.4833 53.6666 36.1666C53.6666 39.0833 52.6461 41.5629 50.6053 43.6053C48.5628 45.6462 46.0833 46.6666 43.1666 46.6666H30.3333C29.0499 46.6666 27.9517 46.2101 27.0386 45.297C26.1239 44.3823 25.6666 43.2833 25.6666 42V29.9833L21.9333 33.6L18.6666 30.3333L27.9999 21L37.3333 30.3333L34.0666 33.6L30.3333 29.9833V42H43.1666C44.7999 42 46.1805 41.4361 47.3083 40.3083C48.436 39.1805 48.9999 37.8 48.9999 36.1666C48.9999 34.5333 48.436 33.1528 47.3083 32.025C46.1805 30.8972 44.7999 30.3333 43.1666 30.3333H39.6666V25.6666C39.6666 22.4389 38.5295 19.6871 36.2553 17.4113C33.9795 15.1371 31.2277 14 27.9999 14C24.7721 14 22.0211 15.1371 19.7469 17.4113C17.4711 19.6871 16.3333 22.4389 16.3333 25.6666H15.1666C12.911 25.6666 10.986 26.4639 9.39159 28.0583C7.79714 29.6528 6.99992 31.5778 6.99992 33.8333C6.99992 36.0889 7.79714 38.0139 9.39159 39.6083C10.986 41.2028 12.911 42 15.1666 42H20.9999V46.6666H15.1666Z" fill="white"/>
</svg>
