<svg width="24" height="24" viewBox="0 0 24 24" fill="none" xmlns="http://www.w3.org/2000/svg">
<g clip-path="url(#clip0_524_2059)">
<path d="M10.2701 12H13.7301C14.6601 12 15.3601 11.17 15.2101 10.25L14.9101 8.46C14.6701 7.04 13.4401 6 12.0001 6C10.5601 6 9.33008 7.04 9.09008 8.47L8.79008 10.26C8.64008 11.17 9.34008 12 10.2701 12Z" fill="white"/>
<path d="M1.66002 11.11C1.53002 11.37 1.48002 11.68 1.56002 11.99C1.72002 12.68 2.32002 13.02 3.09002 12.99C3.09002 12.99 4.58002 12.99 5.04002 12.99C5.87002 12.99 6.55002 12.41 6.55002 11.7C6.55002 11.56 6.52002 11.43 6.48002 11.3C6.47002 11.27 6.47002 11.25 6.49002 11.22C6.58002 11.06 6.63002 10.88 6.63002 10.69C6.63002 10.38 6.49002 10.09 6.27002 9.87C6.24002 9.84 6.24002 9.81 6.25002 9.77C6.32002 9.57 6.32002 9.34 6.26002 9.12C6.10002 8.69 5.71002 8.4 5.27002 8.38C5.24002 8.38 5.22002 8.37 5.20002 8.35C5.03002 8.14 4.72002 8 4.37002 8C4.07002 8 3.80002 8.1 3.62002 8.26C3.59002 8.29 3.56002 8.29 3.53002 8.28C3.39002 8.22 3.23002 8.19 3.07002 8.19C2.42002 8.19 1.89002 8.68 1.83002 9.31C1.83002 9.33 1.82002 9.35 1.80002 9.37C1.51002 9.63 1.34002 10.02 1.39002 10.42C1.42002 10.64 1.51002 10.85 1.64002 11.02C1.67002 11.04 1.67002 11.08 1.66002 11.11Z" fill="white"/>
<path d="M16.24 13.65C15.07 13.13 13.63 12.75 12 12.75C10.37 12.75 8.93 13.14 7.76 13.65C6.68 14.13 6 15.21 6 16.39V18H18V16.39C18 15.21 17.32 14.13 16.24 13.65Z" fill="white"/>
<path d="M1.22 14.58C0.48 14.9 0 15.62 0 16.43V18H4.5V16.39C4.5 15.56 4.73 14.78 5.13 14.1C4.76 14.04 4.39 14 4 14C3.01 14 2.07 14.21 1.22 14.58Z" fill="white"/>
<path d="M22.7801 14.58C21.9301 14.21 20.9901 14 20.0001 14C19.6101 14 19.2401 14.04 18.8701 14.1C19.2701 14.78 19.5001 15.56 19.5001 16.39V18H24.0001V16.43C24.0001 15.62 23.5201 14.9 22.7801 14.58Z" fill="white"/>
<path d="M21.9999 11V10.5C21.9999 9.4 21.0999 8.5 19.9999 8.5H17.9999C17.5799 8.5 17.3499 8.98 17.6099 9.31L18.3099 9.94C18.1199 10.25 17.9999 10.61 17.9999 11C17.9999 12.1 18.8999 13 19.9999 13C21.0999 13 21.9999 12.1 21.9999 11Z" fill="white"/>
</g>
<defs>
<clipPath id="clip0_524_2059">
<rect width="24" height="24" fill="white"/>
</clipPath>
</defs>
</svg>
