<svg width="24" height="24" viewBox="0 0 24 24" fill="none" xmlns="http://www.w3.org/2000/svg">
<path d="M19.991 2.00201C19.7258 2.00201 19.4714 2.10737 19.2839 2.29491C19.0963 2.48244 18.991 2.7368 18.991 3.00201V3.63901C18.1474 4.68446 17.0814 5.52875 15.8705 6.11049C14.6596 6.69222 13.3343 6.99678 11.991 7.00201H5.99097C5.19556 7.00281 4.43296 7.31913 3.87052 7.88157C3.30809 8.44401 2.99176 9.20661 2.99097 10.002V12.002C2.99176 12.7974 3.30809 13.56 3.87052 14.1225C4.43296 14.6849 5.19556 15.0012 5.99097 15.002H6.47497L4.07197 20.608C4.00673 20.7602 3.9803 20.9262 3.99505 21.0911C4.0098 21.256 4.06526 21.4147 4.15646 21.5528C4.24765 21.691 4.37173 21.8044 4.51756 21.8828C4.66339 21.9612 4.8264 22.0022 4.99197 22.002H8.99197C9.18747 22.0018 9.37862 21.9443 9.54177 21.8366C9.70493 21.7289 9.83294 21.5757 9.90997 21.396L12.634 15.04C13.8645 15.1305 15.0635 15.4722 16.1568 16.0441C17.2502 16.616 18.2147 17.4059 18.991 18.365V19.002C18.991 19.2672 19.0963 19.5216 19.2839 19.7091C19.4714 19.8967 19.7258 20.002 19.991 20.002C20.2562 20.002 20.5105 19.8967 20.6981 19.7091C20.8856 19.5216 20.991 19.2672 20.991 19.002V3.00201C20.991 2.7368 20.8856 2.48244 20.6981 2.29491C20.5105 2.10737 20.2562 2.00201 19.991 2.00201ZM5.99097 13.002C5.72575 13.002 5.4714 12.8967 5.28386 12.7091C5.09632 12.5216 4.99097 12.2672 4.99097 12.002V10.002C4.99097 9.7368 5.09632 9.48244 5.28386 9.29491C5.4714 9.10737 5.72575 9.00201 5.99097 9.00201H6.99097V13.002H5.99097ZM8.33197 20.002H6.50797L8.64997 15.002H10.475L8.33197 20.002ZM18.992 15.524C17.0203 13.8994 14.5467 13.0082 11.992 13.002H8.99197V9.00201H11.992C14.5467 8.99581 17.0203 8.10459 18.992 6.48001V15.524Z" fill="black"/>
</svg>
